<svg xmlns="http://www.w3.org/2000/svg" width="324.469" height="359.46" viewBox="0 0 85.849 95.107"
    xmlns:v="https://vecta.io/nano">
    <defs>
        <clipPath id="A">
            <path d="M0 500h750V0H0z" transform="translate(-268.288 -247.595)"/>
        </clipPath>
        <clipPath id="B">
            <path d="M0 500h750V0H0z" transform="translate(-271.214 -251.286)"/>
        </clipPath>
        <clipPath id="C">
            <path d="M0 500h750V0H0z" transform="translate(-250.139 -230.101)"/>
        </clipPath>
        <clipPath id="D">
            <path d="M0 500h750V0H0z" transform="translate(-226.306 -243.231)"/>
        </clipPath>
        <clipPath id="E">
            <path d="M0 500h750V0H0z" transform="translate(-222.407 -218.405)"/>
        </clipPath>
        <clipPath id="F">
            <path d="M0 500h750V0H0z" transform="translate(-172.288 -246.542)"/>
        </clipPath>
        <clipPath id="G">
            <path d="M0 500h750V0H0z" transform="translate(-229.285 -292.394)"/>
        </clipPath>
        <clipPath id="H">
            <path d="M0 500h750V0H0z" transform="translate(-271.211 -251.28)"/>
        </clipPath>
        <clipPath id="I">
            <path d="M0 500h750V0H0z" transform="translate(-151.236 -248.181)"/>
        </clipPath>
        <clipPath id="J">
            <path d="M0 500h750V0H0z" transform="translate(-172.282 -246.546)"/>
        </clipPath>
        <clipPath id="K">
            <path d="M0 500h750V0H0z" transform="translate(-141.16 -253.947)"/>
        </clipPath>
        <clipPath id="L">
            <path d="M0 500h750V0H0z" transform="translate(-245.946 -244.764)"/>
        </clipPath>
        <clipPath id="M">
            <path d="M0 500h750V0H0z" transform="translate(-229.285 -292.394)"/>
        </clipPath>
        <clipPath id="N">
            <path d="M0 500h750V0H0z" transform="translate(-160.653 -263.718)"/>
        </clipPath>
        <clipPath id="O">
            <path d="M0 500h750V0H0z" transform="translate(-178.185 -270.963)"/>
        </clipPath>
        <clipPath id="P">
            <path d="M0 500h750V0H0z" transform="translate(-207.168 -258.091)"/>
        </clipPath>
        <clipPath id="Q">
            <path d="M0 500h750V0H0z" transform="translate(-224.332 -250.784)"/>
        </clipPath>
        <clipPath id="R">
            <path d="M0 500h750V0H0z" transform="translate(-141.602 -207.212)"/>
        </clipPath>
        <clipPath id="S">
            <path d="M0 500h750V0H0z" transform="translate(-222.407 -218.405)"/>
        </clipPath>
        <clipPath id="T">
            <path d="M0 500h750V0H0z" transform="translate(-231.05 -234.576)"/>
        </clipPath>
        <clipPath id="U">
            <path d="M0 500h750V0H0z" transform="translate(-234.888 -227.588)"/>
        </clipPath>
    </defs>
    <g transform="matrix(.264583 0 0 .264583 -23.103583 -38.512964)">
        <path d="M108.694 231.357l2.738 1.988 30.406 23.177-6.581 8.634-26.777-20.411q-5.255-4.006-7.955-4.876-2.652-.933-7.419-.907l.467-11.514q2.572-.908 6.642-.279-.299-8.042 1.036-9.794 1.335-1.752 7.512-2.978 6.162-1.337 8.254-1.226 2.029.063 4.219 1.732l33.096 25.227-6.629 8.696-31.845-24.274q-.563-.429-1.758-.549-1.21-.23-3.036-.039-1.779.128-2.447 1.004-.62.813-.573 2.828-.015 1.967.649 3.561zm20.981-36.712q1.225-7.473 3.512-9.273 2.287-1.801 9.838-1.238 7.552.562 10.646 2.331 2.091 1.257 7.055 7.561l19.904 25.279-8.529 6.716-7.3-9.271-8.529 6.716 7.3 9.271-8.529 6.716-19.904-25.279q-4.964-6.304-5.695-8.632-.993-3.423.232-10.896zm13.993 12.812l6.764 8.591 8.529-6.716-6.764-8.591q-3.991-5.068-5.361-5.791-1.419-.785-3.629-1.048-2.196-.373-3.062.308-.865.681-1.079 2.953-.201 2.161.229 3.724.382 1.502 4.372 6.57zm26.467-9.551l-3.037-6.742q-4.039-8.965-3.736-12.122.304-3.157 3.027-9.56 2.795-6.436 5.09-7.47 3.945-1.777 11.105.519 7.128 2.224 10.947 7.061l-5.473 9.109q-2.892-3.356-6.857-5.453-3.997-2.168-5.001-1.716-1.793.808-2.505 5.356-.318 1.783 3.301 9.816l3.037 6.742q3.716 8.248 5.165 8.976 3.878 2.48 5.672 1.673 1.004-.452 2.254-4.381 1.218-4 .814-7.96l10.482 2.008q.867 5.563-2.351 12.017-3.251 6.382-7.195 8.16-2.295 1.034-8.968-1.137-6.601-2.203-9.166-4.067-2.565-1.864-6.605-10.83zm62.61 4.115l-4.329-24.798-10.694 1.867 4.329 24.798-10.694 1.867-5.79-33.168q-1.15-6.587-2.526-8.982-1.312-2.486-4.829-5.705l8.163-8.133q2.764 1.194 5.317 5.3 2.54 4.029 3.622 10.228l.785 4.495 10.694-1.867-3.518-20.149 10.694-1.867 9.47 54.246zm34.91-4.149q-5.929 4.71-8.754 4.512-2.825-.198-8.117-5.695-5.208-5.57-6.317-8.881-.72-2.101-.142-10.341l.649-9.26q.578-8.24 1.584-10.22 1.56-3.124 7.489-7.834 6.013-4.783 8.838-4.585 2.825.198 8.033 5.768 5.292 5.497 6.401 8.808.72 2.101.142 10.341l-.649 9.26q-.578 8.24-1.584 10.22-1.56 3.124-7.573 7.907zm-10.526-8.466q1.459 1.68 2.558 1.757 1.099.077 2.7-1.388 1.685-1.538 2.412-2.906.732-1.447 1.184-7.882l.649-9.26q.451-6.435-.077-7.891-.523-1.535-1.983-3.215-1.375-1.753-2.474-1.83-1.099-.077-2.784 1.461-1.601 1.465-2.333 2.912-.727 1.369-1.178 7.803l-.649 9.26q-.451 6.435.072 7.97.529 1.457 1.904 3.209zm64.366-25.505q6.682-1.641 8.604-.737 1.994.937 4.492 6.718 2.603 5.743 2.935 7.811.365 1.997-1.274 5.486-1.639 3.489-3.544 4.767-1.871 1.207-5.99 2.574 2.746 5.81 3.426 9.172.181 1.65-1.492 5.209-1.639 3.489-2.924 4.189-2.586 2.174-9.54 4.209-6.92 1.963-9.768.625l-14.738-6.926 14.32-30.472q2.71-5.767 2.96-8.518.321-2.718-.808-7.159l12.476-2.134q1.04 2.227.865 5.187zm-9.817 26.069l-6.123 13.029 4.913 2.309q.926.435 2.947-.353 2.055-.859 3.127-1.66 1.176-.838 2.782-4.255 1.104-2.35-1.452-6.158zm6.089-12.958l-2.375 5.055 3.631 1.706q.783.368 2.558-.449 1.88-.855 2.809-1.722.929-.867 1.632-2.362.703-1.495.149-4.015-.521-2.591-1.731-3.16-1.21-.569-4.208-.848-1.091 2.877-2.463 5.796zm42.655 10.325q7.565-.341 9.798 1.526 2.233 1.867 3.239 9.372 1.006 7.505-.088 10.898-.799 2.305-5.946 8.461l-20.637 24.685-8.329-6.963 7.568-9.053-8.329-6.963-7.568 9.053-8.329-6.963 20.637-24.685q5.147-6.156 7.274-7.351 3.145-1.677 10.71-2.018zm-9.655 16.332l-7.013 8.389 8.329 6.963 7.013-8.389q4.137-4.949 4.563-6.439.476-1.55.278-3.767-.087-2.226-.932-2.932-.845-.706-3.112-.448-2.156.248-3.597.992-1.391.683-5.528 5.632zm44.739 17.558q7.174 2.619 8.497 4.477 1.323 1.859.663 8.122-.55 6.282-1.276 8.246-.662 1.919-2.905 3.516-4.358 3.102-5.693 2.99-3.009.114-7.772-.745-.935 6.555-2.238 8.931-.981 1.471-7.428 6.928-6.383 5.412-9.588 7.693l-6.842-9.614q2.884-2.053 8.672-6.944 5.788-4.892 6.614-6.445.871-1.489 1.24-3.007l-4.06-5.704-18.715 13.319-6.295-8.845 28.072-19.979q5.191-3.695 6.631-5.878 1.549-2.165 2.81-6.634l10.857 3.859q.114 3.009-1.244 5.713zm-9.683 9.595l-4.935 3.512 1.779 2.5q.639.897 3.052 1.304 2.414.407 3.649.107 1.345-.281 2.434-1.057 1.09-.775 1.603-1.817.624-1.023 1.166-2.568.542-1.545.177-2.057-1.232-1.73-3.935-3.765-2.363 1.971-4.991 3.841z" fill="#ff491a"/>
        <path d="M0 0c0-45.512-36.895-82.406-82.406-82.406S-164.812-45.512-164.812 0s36.895 82.405 82.406 82.405S0 45.511 0 0" transform="matrix(1.333333 0 0 -1.333333 357.71747 336.5404)" clip-path="url(#A)" fill="#c98c4b"/>
        <path d="M0 0c-1.214-2.256-10.728-6.105-22.436-9.121-.895 1.005-1.839 1.863-2.832 2.599-1.435 1.067-2.967 1.851-4.598 2.341-3.396 1.031-6.583.589-9.072-.208.368 2.182.54 4.426.417 6.461a132.83 132.83 0 0 0 7.38-5.186c.442-.343.956-.502 1.472-.502.748 0 1.483.331 1.961.968.012.012.025.037.025.049.785 1.079.564 2.587-.503 3.384-30.65 23.208-60.258 25.464-79.702 23.269-19.408-2.194-32.55-8.986-34.953-10.323-.025 0-.037-.012-.062-.037-.171-.085-.282-.147-.319-.171a1.86 1.86 0 0 1-.392-.294c-.012-.013-.036-.025-.049-.037-.821-.748-1.03-2.011-.454-3.016a2.45 2.45 0 0 1 3.347-.895c.147.086 4.463 2.513 11.832 5.002-.614-3.028-1.239-7.27-1.116-11.622.024-.687.061-1.386.122-2.085-12.75.699-38.042 4.953-38.729 19.016-.172 3.432 2.942 6.51 5.578 8.484 20.106 15.043 80.892 22.227 120.516 8.434.38-.135 3.556-1.311 3.739-1.275C-10.703 24.949-1.986 15.129.429 8.913 1.643 5.775 1.496 2.771 0 0" transform="matrix(1.333333 0 0 -1.333333 361.6192 331.61853)" clip-path="url(#B)" fill="#ff9400"/>
        <path d="M0 0c-2.501-1.875-8.275-5.872-15.129-7.993-2.439-.76-5.026-1.287-7.638-1.398-.11 2.073-.331 3.997-.625 5.775 3.518 3.494 12.824 5.48 13.4 5.591.013.011.025.011.025.011-3.335 1.974-6.473 2.563-9.122 2.49-2.476-.062-4.524-.7-5.921-1.288-.184.588-.368 1.103-.528 1.569 1.79.761 3.433 1.765 4.476 3.102.539.699 1.041 1.655 1.507 2.795.675.417 1.974 1.141 3.617 1.594 1.667.479 3.69.687 5.774.049C-6.069 11.047-2.648 6.915 0 0" transform="matrix(1.333333 0 0 -1.333333 333.51893 359.86587)" clip-path="url(#C)" fill="#ff491a"/>
        <path d="M0 0l-.037-.122c-.343-.92-.711-1.68-1.054-2.134-.846-1.079-3.126-1.962-5.541-2.562l-2.379-.503.172 4.12C-7.736-.956-6.068-.515-5.21 0c1.336.797 3.028 3.016 2.525 4.132s-2.256 2.145-2.256 2.145 1.337 1.986 2.526 2.452S.11 8.116.11 8.116s0 2.305-1.532 2.759c-1.141.343-5.247-2.575-7.258-4.083l.013 2.428c3.077 2.292 7.527 4.671 9.255 3.874.086-.05.417-.393.662-1.398C2.023 8.533 1.152 3.225 0 0" transform="matrix(1.333333 0 0 -1.333333 301.74093 342.35813)" clip-path="url(#D)" fill="#ffc594"/>
        <path d="M0 0a1.97 1.97 0 0 1 .049-.601c-.098-6.89-1.851-15.018-7.552-22.779-4.868-6.633-14.124-11.537-24.14-15.141h-.013c-13.387-4.793-28.148-7.221-35.7-8.239.281 1.263.392 2.808.208 4.696-.368 3.837-3.985 7.037-8.165 10.74-3.96 3.493-8.448 7.466-8.852 11.34-.356 3.421 1.398 6.498 3.359 8.791 1.128 1.324 2.329 2.39 3.237 3.126 4.511-3.777 10.654-6.609 18.427-7.026.527-.036 1.066-.049 1.642-.049 11.832 0 31.497 6.07 42.285 11.292-2.734-3.127-7.503-7.098-15.852-11.623-10.543-5.725-19.641-7.54-26.445-7.711-7.515-.209-12.248 1.57-13.081 2.206a2.45 2.45 0 0 1-3.457-.269c-.883-1.029-.773-2.574.257-3.457.858-.735 2.905-1.68 5.934-2.366 2.452-.576 5.553-.981 9.17-.981 7.896 0 18.28 1.925 29.964 8.263C-7.037-8.006-6.424 1.435-6.743 4.046c.613 2.636 1.042 6.387 1.336 10.457a42.16 42.16 0 0 1 2.893.503C-1.594 12.419-.012 7.013.049.307.024.208 0 .11 0 0" transform="matrix(1.333333 0 0 -1.333333 296.54293 375.4596)" clip-path="url(#E)" fill="#ff491a"/>
        <path d="M0 0c-2.047 0-3.702 3.065-3.702 6.853 0 3.776 1.655 6.841 3.702 6.841 2.036 0 3.69-3.065 3.69-6.841C3.69 3.065 2.036 0 0 0m-21.05 1.643c-1.68 0-3.029 2.513-3.029 5.615s1.349 5.615 3.029 5.615c1.667 0 3.028-2.514 3.028-5.615s-1.361-5.615-3.028-5.615m50.413 13.069l-1.337 6.571-5.234 1.201c-1.116-2.17-1.508-5.088-1.508-8.079C21.284 7.858 23.135.98 23.135.98 16.208 4.413 11.721 10.997 8.987 16.563c-1.582 3.237-2.563 6.13-3.09 7.858-4.879.136-9.526-.085-13.841-.551-.135-2.17.441-4.561 1.066-6.449.626-1.9 1.312-3.286 1.386-3.445-2.477.809-4.5 1.962-6.143 3.2-2.513 1.876-4.119 3.96-5.014 5.382-2.856-.552-5.517-1.189-7.956-1.864-.332-1.336-.834-3.555-1.202-6.178-.466-3.409-.699-7.479-.012-11.157.024-.074.036-.147.048-.233.295-1.459.736-2.856 1.374-4.107.441-.883.318-1.937-.319-2.685-1.434-1.704-4.34-5.823-5.946-10.127 1.949 1.582 3.678 2.832 4.965 3.703 1.042 4.45 5.934 7.393 8.41 8.863.258.16.478.283.662.406.344.907.65 3.628.687 6.031.012 1.349 1.104 2.428 2.452 2.428h.025a2.46 2.46 0 0 0 2.427-2.477c-.098-8.03-1.839-9.33-2.415-9.759-.27-.196-.736-.49-1.324-.834-1.827-1.09-6.106-3.653-6.228-6.24-.013-.221.392-.675 1.201-1.091 3.029-1.606 8.546-1.606 10.164-.392.539.417.809.894.858 1.556.073 1.128-.527 2.306-.846 2.71-.981.564-1.471 1.753-1.103 2.869A2.43 2.43 0 0 0-7.65-4.426c1.778-.576 3.126-3.053 3.58-5.235 11.917-5.174 19.076-21.627 19.076-21.627l-24.63 12.873c-1.275-.356-2.697-.515-4.168-.515-2.305 0-4.684.405-6.645 1.116l-10.151-6.413c1.483-3.468 4.364-7.073 8.447-9.783 1.458 1.3 2.403 3.654 2.881 5.187-2.771 1.299-4.389 2.819-4.512 2.954-.981.932-1.005 2.489-.061 3.47.932.968 2.476.993 3.457.061.221-.209 5.063-4.646 12.542-3.2a2.44 2.44 0 0 0 2.881-1.937c.258-1.324-.613-2.611-1.937-2.869-1.385-.269-2.685-.38-3.923-.38-.233 0-.441.012-.662.025.993-2.98 3.298-5.885 4.953-7.662 7.663.146 17.838 2.782 26.567 5.786l-1.201 16.134 14.614 7.356 1.373 19.849.049.785z" transform="matrix(1.333333 0 0 -1.333333 229.71747 337.944)" clip-path="url(#F)" fill="#ffc594"/>
        <path d="M0 0c-23.061 7.785-52.093 9.048-77.03 5.909.846 2.685 2.379 6.461 5.1 10.103 4.23 5.688 11.341 11.009 23.086 11.193 27.352.38 44.271-8.827 46.723-12.75 1.005-1.606 1.606-5.039 1.913-9.012A88.15 88.15 0 0 0 0 0" transform="matrix(1.333333 0 0 -1.333333 305.7136 276.808)" clip-path="url(#G)" fill="#ff9400"/>
        <g fill="#0d1f38">
            <path d="M0 0c-1.207-2.248-10.73-6.097-22.433-9.117-2.194 2.452-4.671 4.11-7.423 4.94-3.403 1.03-6.586.592-9.082-.21.372 2.184.54 4.436.419 6.46 2.451-1.597 4.912-3.319 7.379-5.187a2.44 2.44 0 0 1 1.478-.496 2.45 2.45 0 0 1 1.957.971A2.45 2.45 0 0 1-28.18.796c-30.648 23.208-60.258 25.463-79.702 23.259-21.09-2.387-34.767-10.194-35.338-10.526a2.45 2.45 0 1 1 2.456-4.243c.149.087 4.458 2.513 11.825 5.005-.712-3.512-1.435-8.644-.994-13.704-12.751.688-38.033 4.947-38.727 19.011-.168 3.433 2.942 6.507 5.579 8.481 1.477 1.104 3.05 2.078 4.667 2.962 1.843 1.007 3.748 1.898 5.685 2.709 2.16.903 4.361 1.705 6.586 2.432a116.98 116.98 0 0 0 7.369 2.131 146.74 146.74 0 0 0 8.033 1.806 172.98 172.98 0 0 0 8.58 1.459c2.994.433 5.999.794 9.01 1.087 3.101.301 6.209.531 9.32.691a208.16 208.16 0 0 0 9.514.273 203.01 203.01 0 0 0 9.588-.17 190.31 190.31 0 0 0 9.547-.636c3.138-.29 6.268-.662 9.386-1.126a147.91 147.91 0 0 0 9.107-1.64c2.928-.624 5.836-1.344 8.711-2.177l3.058-.933c.592-.19 1.161-.376 1.756-.536 1.119-.302 4.119-1.507 4.607-1.653 1.23-.367 2.444-.947 3.641-1.413 1.786-.694 3.562-1.413 5.325-2.162 3.066-1.303 6.096-2.695 9.06-4.216 2.431-1.247 4.819-2.58 7.13-4.037 1.869-1.18 3.69-2.441 5.42-3.818 1.382-1.101 2.709-2.278 3.931-3.556.969-1.014 1.874-2.094 2.665-3.254.626-.918 1.18-1.887 1.62-2.909.067-.156.131-.312.192-.471C1.646 5.782 1.504 2.783 0 0m-43.844-30.574a50.12 50.12 0 0 1-.624 5.774c3.639 3.609 13.429 5.609 13.429 5.609-6.448 3.827-12.154 2.42-15.048 1.197a45.05 45.05 0 0 1-.525 1.573c1.791.755 3.435 1.76 4.483 3.107.534.687 1.043 1.654 1.505 2.788 1.365.848 5.272 2.906 9.391 1.642 4.096-1.254 7.509-5.386 10.156-12.29-3.388-2.555-12.813-8.987-22.767-9.4M-47.59-3.917c-.498 1.11-2.261 2.146-2.261 2.146S-48.51.221-47.322.68s2.529-.613 2.529-.613 0 2.299-1.533 2.759c-1.143.343-5.247-2.575-7.259-4.08l.016 2.425c3.067 2.296 7.519 4.668 9.247 3.87.095-.043.417-.389.661-1.388.774-3.163-.09-8.475-1.242-11.7-.015-.04-.032-.08-.045-.121-.34-.929-.701-1.684-1.053-2.137-1.117-1.436-4.776-2.523-7.911-3.06l.162 4.116c1.106.249 2.778.683 3.631 1.194 1.341.805 3.027 3.027 2.529 4.138m-1.171-29.56c-.088-6.889-1.842-15.014-7.548-22.779-11.383-15.49-46.648-21.602-59.855-23.385.286 1.265.397 2.813.212 4.701-.373 3.834-3.986 7.033-8.171 10.737-3.956 3.503-8.439 7.474-8.84 11.346-.558 5.388 4.117 9.915 6.592 11.91 4.506-3.777 10.651-6.607 18.422-7.026.528-.029 1.075-.042 1.64-.042 11.839 0 31.5 6.073 42.29 11.286-2.729-3.121-7.504-7.089-15.851-11.622-22.202-12.055-37.941-6.713-39.531-5.503-1.026.88-2.575.761-3.457-.266a2.45 2.45 0 0 1 .265-3.457c1.559-1.335 7.02-3.349 15.1-3.348 7.89 0 18.279 1.919 29.963 8.265 21.686 11.776 22.301 21.216 21.98 23.832.619 2.63 1.048 6.391 1.342 10.453a37.24 37.24 0 0 1 2.892.511c.92-2.589 2.502-8.002 2.557-14.699-.02-.102-.044-.203-.05-.309a2.48 2.48 0 0 1 .048-.605m-74.875 25.068c.634.753.757 1.812.312 2.69-.635 1.252-1.074 2.645-1.366 4.105a2.37 2.37 0 0 1-.049.24c-1.221 6.495.437 14.268 1.213 17.327a104.44 104.44 0 0 0 7.954 1.869c1.487-2.34 4.879-6.494 11.164-8.598 0 0-2.736 5.445-2.457 9.912a101.92 101.92 0 0 0 13.844.544c1.42-4.707 6.289-18.003 17.233-23.444 0 0-3.928 14.595-.338 21.513 1.724-.348 3.467-.749 5.228-1.203l1.342-6.568 5.517-3.167-1.43-20.638-14.61-7.357 1.202-16.134c-8.732-3-18.906-5.639-26.565-5.785-1.659 1.775-3.965 4.684-4.954 7.66.219-.008.432-.025.656-.025 1.237 0 2.548.116 3.924.385a2.45 2.45 0 0 1 1.938 2.874c-.259 1.328-1.539 2.202-2.875 1.938-7.486-1.452-12.321 2.982-12.55 3.199-.975.931-2.521.9-3.459-.071a2.45 2.45 0 0 1 .063-3.467c.133-.128 1.743-1.651 4.519-2.957-.483-1.528-1.422-3.875-2.885-5.179-4.086 2.707-6.959 6.315-8.449 9.781l10.15 6.406c1.968-.71 4.344-1.114 6.652-1.114 1.463 0 2.891.167 4.17.514l24.632-12.864s-7.168 16.455-19.078 21.624c-.456 2.178-1.806 4.66-3.58 5.231a2.45 2.45 0 0 1-3.086-1.584c-.36-1.121.13-2.311 1.11-2.876.317-.397.916-1.578.84-2.711-.044-.663-.31-1.143-.859-1.557-1.61-1.209-7.136-1.21-10.16.39-.805.427-1.214.874-1.203 1.094.125 2.594 4.402 5.147 6.229 6.238.59.352 1.054.638 1.326.84.574.427 2.317 1.722 2.408 9.757a2.45 2.45 0 0 1-2.424 2.479h-.028c-1.342 0-2.436-1.08-2.452-2.424-.026-2.405-.341-5.135-.68-6.043-.178-.112-.406-.244-.664-.398-2.474-1.477-7.367-4.412-8.412-8.868a71.44 71.44 0 0 1-4.96-3.699c1.598 4.301 4.516 8.42 5.947 10.121m32.865 76.728c27.355.379 44.267-8.833 46.719-12.754 1.452-2.316 2.082-8.44 2.125-14.456-23.06 7.785-52.087 9.048-77.033 5.912 2.147 6.85 8.912 21.007 28.189 21.298m53.748-28.941c.065 5.252-.229 14.57-2.872 18.789-3.414 5.461-21.899 15.459-50.949 15.056-24.743-.374-31.771-20.374-33.413-26.94-17.844-2.756-33.096-7.794-41.761-14.278-5.222-3.907-7.759-8.162-7.54-12.648 1.009-20.445 35.786-23.314 44.493-23.712.201-.723.434-1.433.709-2.122-2.2-2.91-7.301-10.45-7.226-17.546-3.942-4.082-7.812-9.206-10.088-15.142l12 7.575c.93-1.976 2.197-3.978 3.801-5.876-3.276-2.735-8.739-8.48-7.972-15.897.597-5.772 5.84-10.415 10.467-14.511 2.979-2.638 6.355-5.627 6.542-7.543.308-3.163-.555-4.619-1.107-4.997-1.207-.323-1.834-1.472-1.631-2.717.195-1.191 1.358-2.01 2.559-2.01.079 0 .159.003.238.012 2.16.197 53.074 5.091 68.416 25.969 5.937 8.08 8.104 16.409 8.499 23.678 14.149.504 26.728 11.139 27.288 11.62.764.654 1.05 1.711.722 2.662-1.029 2.977-2.2 5.584-3.508 7.816 8.955 2.402 21.194 6.437 23.674 11.059C5.84.494 7.194 5.04 4.999 10.697 1.014 20.963-13.128 30.602-37.023 39.378" transform="matrix(1.333333 0 0 -1.333333 361.61453 331.62627)" clip-path="url(#H)"/>
            <path d="M0 0c1.673 0 3.03 2.516 3.03 5.619S1.673 11.238 0 11.238-3.03 8.722-3.03 5.619-1.673 0 0 0" transform="matrix(1.333333 0 0 -1.333333 201.64773 335.75907)" clip-path="url(#I)"/>
            <path d="M0 0c2.039 0 3.691 3.064 3.691 6.845S2.039 13.69 0 13.69s-3.691-3.065-3.691-6.845S-2.039 0 0 0" transform="matrix(1.333333 0 0 -1.333333 229.7096 337.9388)" clip-path="url(#J)"/>
        </g>
        <g fill="#fc6400">
            <path d="M0 0c-8.68.797-17.188 4.205-17.691 5.909-.405 1.385 2.587 3.617 4.082 4.622-.821-.748-1.03-2.01-.454-3.016a2.45 2.45 0 0 1 3.348-.895c.147.086 4.463 2.514 11.831 5.003C.502 8.594-.123 4.352 0 0" transform="matrix(1.333333 0 0 -1.333333 188.2136 328.07093)" clip-path="url(#K)"/>
            <path d="M0 0c-1.435 1.067-2.967 1.852-4.598 2.342-3.396 1.03-6.583.589-9.072-.208.368 2.182.54 4.426.417 6.461l7.38-5.187c.442-.343.956-.502 1.472-.502.748 0 1.483.331 1.961.968.012.013.025.037.025.05C-1.312 2.611-.429 1.263 0 0" transform="matrix(1.333333 0 0 -1.333333 327.9284 340.31507)" clip-path="url(#L)"/>
            <path d="M0 0c-23.061 7.785-52.093 9.048-77.03 5.909.846 2.685 2.379 6.461 5.1 10.103 14.492.674 39.686-.356 71.722-10.569A88.15 88.15 0 0 0 0 0" transform="matrix(1.333333 0 0 -1.333333 305.7136 276.808)" clip-path="url(#M)"/>
        </g>
        <g fill="#f28f69">
            <path d="M0 0c-6.596-.527-11.316-1.716-14.172-2.66a61.43 61.43 0 0 0 1.201 6.179c2.44.674 5.1 1.312 7.957 1.863C-4.119 3.96-2.513 1.876 0 0" transform="matrix(1.333333 0 0 -1.333333 214.2044 315.04293)" clip-path="url(#N)"/>
            <path d="M0 0c.527-1.729 1.508-4.622 3.09-7.858-6.007.76-11.292.981-15.865.858-.625 1.888-1.201 4.278-1.066 6.448A102.53 102.53 0 0 0 0 0" transform="matrix(1.333333 0 0 -1.333333 237.58013 305.38213)" clip-path="url(#O)"/>
            <path d="M0 0l-.049-.785C-4.843.723-9.354 1.925-13.596 2.856c0 2.992.392 5.91 1.508 8.08 1.728-.344 3.469-.748 5.234-1.202l1.337-6.571z" transform="matrix(1.333333 0 0 -1.333333 276.224 322.5456)" clip-path="url(#P)"/>
            <path d="M0 0c-.319-.834 1.263-3.212 1.042-4.953s.393-3.372-2.808-4.5c-1.753-.613-2.537-1.887-2.893-2.918l-2.378-.503.171 4.121c1.104.245 2.771.686 3.629 1.201C-1.9-6.755-.208-4.537-.711-3.42s-2.256 2.145-2.256 2.145S-1.631.711-.441 1.177 2.084.564 2.084.564.331.833 0 0" transform="matrix(1.333333 0 0 -1.333333 299.10933 332.2884)" clip-path="url(#Q)"/>
        </g>
        <g fill="#d82912">
            <path d="M0 0c1.128 1.324 2.329 2.391 3.236 3.126C7.748-.65 13.891-3.482 21.664-3.899c.526-.037 1.066-.049 1.642-.049 11.831 0 31.496 6.069 42.285 11.292C62.857 4.217 58.088.245 49.739-4.279c-10.544-5.726-19.641-7.54-26.445-7.711 3.445 1.789 7.466 4.254 7.466 4.254C12.922-9.784 3.31-3.017 0 0" transform="matrix(1.333333 0 0 -1.333333 188.80213 390.38413)" clip-path="url(#R)"/>
            <path d="M0 0a1.97 1.97 0 0 1 .049-.601c-.098-6.89-1.851-15.018-7.552-22.779-4.868-6.633-14.124-11.537-24.14-15.141 10.347 6.866 13.474 15.607 13.474 15.607s-10.495-7.136-29.118-8.741c-10.188-.883-16.735 1.887-20.572 4.585 2.452-.576 5.553-.981 9.17-.981 7.896 0 18.28 1.925 29.964 8.263C-7.037-8.006-6.424 1.435-6.743 4.046c.613 2.636 1.042 6.387 1.336 10.457a42.16 42.16 0 0 1 2.893.503C-1.594 12.419-.012 7.013.049.307.024.208 0 .11 0 0" transform="matrix(1.333333 0 0 -1.333333 296.54293 375.4596)" clip-path="url(#S)"/>
            <path d="M0 0c-2.477-.062-4.524-.699-5.921-1.287L-6.449.281c1.79.761 3.433 1.766 4.475 3.103.54.698 1.042 1.654 1.508 2.795.674.417 1.974 1.14 3.617 1.593-.307-2.157-.944-5.602-1.925-6.473C.858.956.417.502 0 0" transform="matrix(1.333333 0 0 -1.333333 308.06707 353.8984)" clip-path="url(#T)"/>
            <path d="M0 0c-.417-.87-.221-3.2.123-5.48-2.44-.76-5.027-1.288-7.638-1.398-.11 2.072-.331 3.997-.626 5.774C-4.622 2.391 4.684 4.377 5.26 4.487 4.929 4.291.883 1.839 0 0" transform="matrix(1.333333 0 0 -1.333333 313.1836 363.21613)" clip-path="url(#U)"/>
        </g>
        <path d="M94.135 397.039q-2.189-1.075-2.521-1.924-.332-.849.536-3.148.901-2.284 1.712-3.064.512-.5 2.989-1.469l2.784-1.09q2.477-.97 3.192-.95 1.124.022 3.313 1.097 2.222 1.089 2.554 1.938.332.849-.569 3.134-.868 2.299-1.679 3.078-.512.5-2.989 1.469l-2.784 1.09q-2.477.97-3.192.95-1.124-.022-3.346-1.111zm1.01-4.231q-.287.656-.158.987.129.33.777.594.68.278 1.179.3.522.013 2.456-.744l2.784-1.09q1.934-.757 2.285-1.112.374-.364.661-1.021.32-.642.191-.972-.129-.33-.809-.608-.647-.264-1.169-.277-.499-.023-2.433.735l-2.784 1.09q-1.934.757-2.309 1.121-.351.355-.671.997zm-1.659-17.156l2.276-.699q3.027-.93 4.023-.706.996.224 2.933 1.352 1.944 1.152 2.182 1.927.409 1.332-.612 3.527-.997 2.188-2.697 3.214l-2.69-2.115q1.189-.789 2.018-1.972.854-1.19.749-1.529-.186-.605-1.611-1.016-.557-.173-3.269.66l-2.276.699q-2.785.856-3.076 1.289-.949 1.139-.763 1.745.104.339 1.309.896 1.229.55 2.51.58l-1.063 3.268q-1.812.053-3.745-1.235-1.909-1.295-2.318-2.627-.238-.775.724-2.82.969-2.02 1.668-2.765.699-.745 3.726-1.675zm4.312 32.706l11.506-5.822q.384-.194.553-.478.203-.273.37-.784.168-.511.065-.714-.229-.452-1.51-.741-.531.354-1.164.674l-10.986 5.559-1.578-3.119 9.675-4.895q1.921-.972 2.553-1.632.643-.638 1.282-2.011l3.271 1.752q-.154.986-.717 1.669 2.067.998 2.41 1.677.343.678-.448 3.435 2.69.995 3.079 1.764.286.565-.226 2.528-.478 1.974-.803 2.564-.303.579-1.094.98l-11.958 6.05-1.578-3.119 11.506-5.822q.429-.217.575-.49.169-.284.313-.84.156-.533.007-.827-.137-.271-1.192-.504-.102.08-.373.217l-11.958 6.05zm17.077 8.506l2.417 3.837-2.594 1.634-2.417-3.837-3.944 2.485 3.227 5.123-2.594 1.634-5.091-8.081 13.203-8.318 3.921 1.662 3.011 4.78-2.615 1.647-2.512-3.987-1.057-.442zm-.187 18.826l7.891-6.317q2.433-1.947 3.441-2.106 1.009-.159 3.225.177 2.232.355 2.738.988.697.87 1.033 2.71.337 1.84-.027 3.169l-3.28-.976q.221-1.994-.317-2.667-.206-.257-.811-.324-.586-.083-1.151-.019-.53.067-2.013 1.255l-.455.364 2.834 3.54-2.393 1.916-2.834-3.54-5.696 4.559zm13.705 13.915q-2.431-.196-3.052-.864-.621-.668-.657-3.125 0-2.456.468-3.478.293-.653 2.241-2.464l2.19-2.035q1.948-1.811 2.62-2.055 1.054-.392 3.485-.195 2.466.198 3.087.866.621.668.621 3.124.036 2.457-.432 3.48-.293.653-2.241 2.464l-2.19 2.035q-1.948 1.811-2.62 2.055-1.054.392-3.52.194zm-.614-4.307q-.026.716.215.976.241.26.94.267.735.009 1.207-.153.491-.179 2.012-1.594l2.19-2.035q1.522-1.414 1.718-1.873.215-.476.241-1.192.062-.715-.18-.975-.241-.26-.976-.269-.699-.008-1.189.172-.472.162-1.993 1.576l-2.19 2.035q-1.522 1.414-1.736 1.89-.196.459-.258 1.174zm16.892-1.094q2.435.346 2.976.843.541.497.751 2.514.246 2.016.148 2.683-.08.649-.681 1.302-1.166 1.268-1.594 1.322-.94.237-2.498.284.143 2.128-.109 2.963-.211.529-1.878 2.678-1.65 2.131-2.507 3.063l-2.797-2.572q.772-.839 2.269-2.767 1.497-1.927 1.653-2.472.175-.527.19-1.03l-1.66-1.526-5.007 5.445-2.573-2.366 7.51-8.168q1.389-1.511 1.697-2.294.344-.785.442-2.278l3.678.491q.237.94-.011 1.883zm-2.41 3.669l-1.32 1.436.727.669q.261.24 1.049.207.787-.033 1.157-.21.405-.178.696-.495.291-.317.384-.679.128-.364.196-.887.068-.523-.081-.66-.504-.463-1.491-.924-.613.779-1.316 1.543zm22.324 11.025l-1.789 2.458-2.663-1.938-8.645 11.881-2.827-2.057 8.645-11.881-2.663-1.938 1.789-2.458zm-2.185 19.559l4.262-6.896-2.974-1.838-4.262 6.896-2.974-1.838 5.7-9.224q1.132-1.832 1.313-2.703.216-.879.058-2.406l3.705-.212q.41.879.146 2.413-.25 1.513-1.316 3.237l-.772 1.25 2.974 1.838 3.463-5.603 2.974 1.838-9.322 15.085zm13.867-4.595l4.032 2.076-1.403 2.725-4.032-2.076-2.134 4.144 5.383 2.771-1.403 2.725-8.491-4.372 7.143-13.875 4.221-.562 5.023 2.586-1.415 2.748-4.189-2.157-1.135.157zm9.404 16.302l3.577-9.454q1.103-2.914 1.89-3.564.788-.65 2.866-1.489 2.102-.83 2.86-.543 1.043.394 2.269 1.807 1.226 1.412 1.59 2.741l-3.32.829q-.825-1.829-1.63-2.134-.308-.117-.863.134-.546.227-1.001.569-.422.328-1.094 2.105l-.206.545 4.241 1.605-1.085 2.867-4.241-1.605-2.582 6.824zm30.878 7.851q-2.106 1.229-2.997 1.036-.891-.193-2.326-2.188-1.405-2.014-1.606-3.121-.133-.703.429-3.303l.632-2.922q.562-2.6.974-3.185.64-.924 2.747-2.153 2.136-1.249 3.028-1.056.891.193 2.296 2.207 1.435 1.995 1.636 3.101.133.703-.429 3.303l-.632 2.922q-.562 2.6-.974 3.185-.64.924-2.777 2.173zm-2.966-3.182q.388.602.735.677.347.075.924-.318.608-.413.902-.816.3-.428.739-2.458l.632-2.922q.439-2.03.337-2.519-.096-.513-.484-1.116-.358-.622-.705-.697-.347-.075-.954.338-.578.393-.877.821-.294.403-.734 2.433l-.632 2.922q-.439 2.03-.343 2.544.102.489.46 1.11zm-9.008.332q-2.191 1.071-3.066.813-.875-.258-2.158-2.353-1.252-2.113-1.371-3.231-.081-.711.672-3.262l.846-2.867q.752-2.551 1.206-3.104.707-.874 2.898-1.945 2.222-1.088 3.097-.83.875.258 2.127 2.371 1.284 2.095 1.403 3.213.081.711-.672 3.262l-.846 2.867q-.752 2.551-1.206 3.104-.707.874-2.929 1.962zm-2.724-3.392q.343.629.683.73.34.1.945-.249.636-.367.96-.747.331-.404.918-2.397l.846-2.867q.588-1.992.522-2.487-.058-.519-.401-1.148-.311-.646-.651-.747-.34-.1-.977.267-.605.35-.936.754-.323.38-.911 2.373l-.846 2.867q-.588 1.992-.529 2.511.065.495.377 1.141zm24.925-7.585q1.833-1.082 2.687-.967.854.115 2.413 2.012 1.588 1.875 1.876 2.962.188.69-.167 3.326l-.399 2.963q-.355 2.636-.719 3.252-.584.918-2.523 2.216-1.935 1.273-2.94 1.138l-5.197-.7 1.448-10.746q.274-2.034.084-2.903-.165-.866-.941-2.121l3.625-1.863q.473.473.753 1.431zm2.153 2.616q-.728-.098-1.872.233.004.537-.141 1.617l-1.235 9.164 1.732.233q.351.047.896-.39.573-.46.835-.884.265-.45.543-2.509l.433-3.214q.277-2.059.137-2.538-.137-.504-.571-1.074-.406-.592-.757-.639zm11.143 13.853q-.044.632-2.179 2.49-2.111 1.885-2.314 1.871-.076-.005-.336-.277-.235-.27-.226-.397.028-.404 1.605-2.631-1.072-1.014-1.05-1.342.023-.329 1.066-1.094 1.07-.789 1.323-.772.278.019 1.204.947.928.902.907 1.206zm19.116-5.428q.291.448.33 1.815.038 1.342-.493 2.295-.486.749-2.094 2.112-1.609 1.338-2.394 1.36-1.393.039-3.232-1.353-1.84-1.418-2.37-3.152l2.756-2.004q.439 1.179 1.353 2.141.914.963 1.269.952.38-.011.779-.25.423-.265.644-.525.318-.414.293-1.275-.024-.861-.435-1.052-.519-.416-2.007-1.084-1.463-.668-2.727-1.443-1.264-.801-1.641-1.576-.351-.776-.387-2.017-.036-1.266.495-2.219.486-.749 2.095-2.087 1.609-1.363 2.394-1.386 1.393-.039 3.232 1.378 1.839 1.393 2.369 3.126l-2.756 2.029q-.439-1.179-1.353-2.141-.915-.988-1.295-.977-.355.01-.779.25-.424.24-.693.603-.244.336-.22 1.172.023.81.537 1.075.415.343 1.88 1.062 3.755 1.921 4.449 3.169zm10.345-11.604l.296 3.026-3.278.321 1.433 14.623-3.479.341-1.433-14.623-3.278.321-.296-3.026zm3.27.833q1.496-1.926 2.419-2.084.924-.158 2.974 1.162 2.05 1.32 2.654 2.296.398.677.834 3.224l1.746 10.213-3.446.589-.64-3.746-3.446.589.64 3.746-3.446.589-1.746-10.213q-.435-2.547-.284-3.318.245-1.121 1.741-3.048zm1.99 5.777l.593 3.471 3.446-.589-.593-3.471q-.35-2.048-.627-2.463-.281-.44-.866-.854-.564-.443-.914-.384-.35.06-.759.67-.389.581-.508 1.089-.123.484.227 2.531zm14.848 7.574l-1.746-6.875q-1.157-.543-2.34-1.392-1.165-.88-1.64-1.413-.481-.557-.974-2.497l-1.054-4.15 3.388-.861 1.054 4.15q.318 1.252.645 1.718.346.435 1.042 1.016.721.575.942.519.221-.056.58-.905.353-.874.431-1.39.078-.516-.253-1.818l-1.054-4.15 3.388-.861 1.054 4.15q.499 1.964.336 2.659-.163.695-.791 2.031-.634 1.311-1.368 2.334l1.746 6.875zm16.327-4.807l-3.608-9.442q-1.112-2.911-.956-3.92.157-1.009 1.152-3.017 1.019-2.017 1.776-2.306 1.041-.398 2.896-.157 1.855.24 3.01.992l-1.93 2.826q-1.832-.819-2.636-.511-.308.118-.556.674-.258.532-.37 1.091-.098.525.581 2.3l.208.544 4.236-1.619 1.094 2.863-4.236 1.619 2.604 6.815zm17.454-8.824q-.926 2.256-1.751 2.644-.825.388-3.177-.325-2.339-.747-3.171-1.503-.533-.477-1.665-2.884l-1.273-2.705q-1.133-2.407-1.161-3.121-.053-1.123.874-3.379.938-2.29 1.764-2.678.825-.388 3.165.359 2.352.713 3.184 1.47.533.477 1.665 2.884l1.273 2.705q1.133 2.407 1.161 3.121.053 1.123-.886 3.413zm-4.289-.725q.674.243.995.092.321-.151.541-.814.232-.697.221-1.196-.022-.522-.906-2.401l-1.273-2.705q-.885-1.88-1.262-2.206-.388-.349-1.063-.592-.662-.276-.983-.125-.321.151-.553.848-.22.663-.198 1.185.011.499.895 2.378l1.273 2.705q.885 1.88 1.273 2.229.378.326 1.04.603zm4.084-16.422q1.069-2.215 1.707-2.58.638-.364 2.624.048 1.995.377 2.602.673.594.273 1.034 1.043.854 1.496.776 1.92-.06.968-.487 2.467 2.071.509 2.79 1.003.44.361 1.982 2.602 1.53 2.219 2.158 3.318l-3.3 1.885q-.565-.99-1.948-3.001-1.382-2.011-1.854-2.326-.449-.327-.924-.493l-1.958 1.118 3.669 6.423-3.036 1.734-5.504-9.635q-1.018-1.782-1.671-2.313-.644-.566-2.036-1.113l1.584-3.356q.968.06 1.791.582zm2.765 3.41l.968 1.694.858-.49q.308-.176.515-.936.207-.76.151-1.166-.047-.44-.261-.814-.214-.374-.531-.572-.308-.233-.785-.456-.478-.223-.654-.123-.594.339-1.332 1.14.556.82 1.071 1.722zm17.273-17.931l1.801 2.449-2.654 1.951 8.703 11.839-2.817 2.071-8.703-11.839-2.654 1.951-1.801-2.449zm17.977 8.011l-5.279-6.152-2.653 2.277 5.279 6.152-2.653 2.277-7.061-8.229q-1.402-1.634-2.177-2.071-.772-.472-2.276-.785l.921-3.595q.962-.124 2.344.592 1.366.697 2.686 2.235l.957 1.115 2.653-2.277-4.289-4.999 2.653-2.277 11.548 13.458zm-.169-14.611l3.202-3.211 2.17 2.165-3.202 3.211 3.3 3.292 4.276-4.287 2.17 2.165-6.744 6.762-11.049-11.02.747-4.193 3.989-4 2.188 2.183-3.328 3.336-.196 1.129zm7-16.526q0-2.129.533-2.805.533-.677 2.959-1.055 2.422-.414 3.505-.11.69.189 2.779 1.835l2.348 1.85q2.09 1.646 2.435 2.272.494.97.626 3.299.112 2.314-.515 3.11l-3.245 4.12-8.518-6.709q-1.612-1.27-2.457-1.548-.829-.298-2.305-.267l.238-4.069q.648-.167 1.615.079zm3.347-.524q-.455.577-.751 1.731.465.269 1.321.944l7.264 5.722 1.082-1.373q.219-.279.119-.97-.104-.727-.337-1.169-.253-.457-1.885-1.742l-2.547-2.006q-1.632-1.285-2.116-1.408-.504-.139-1.215-.054-.716.049-.935.328zm4.414-9.78q-.047-2.459.357-3.072.405-.613 2.362-1.143 1.951-.565 2.625-.575.653-.024 1.393.464 1.438.948 1.56 1.362.384.89.679 2.421 2.077-.481 2.942-.366.556.124 2.944 1.426 2.367 1.288 3.425 1.986l-2.092 3.172q-.952-.628-3.093-1.798-2.142-1.17-2.704-1.237-.548-.089-1.047-.023l-1.241 1.882 6.175 4.073-1.925 2.918-9.263-6.109q-1.713-1.13-2.536-1.308-.83-.214-2.319-.073l-.103-3.709q.89-.384 1.861-.29zm4.007 1.793l1.628 1.074.544-.825q.195-.296.037-1.068-.158-.772-.392-1.108-.241-.371-.6-.608-.36-.237-.732-.27-.38-.068-.907-.052-.527.017-.638.186-.377.571-.674 1.619.867.481 1.734 1.052zm15.731-1.885l-15.38-8.828 1.74-3.032 15.38 8.828zm-6.879-15.349l.987.461 11.032 5.466-1.552 3.133-9.715-4.814q-1.907-.945-2.814-1.055-.896-.133-2.401.167l-.557-3.669q.757-.445 2.083-.495-.587-2.524-.272-3.16.315-.636 2.193-1.401 1.866-.8 2.535-.893.645-.104 1.44.289l12.008 5.95-1.563 3.155-11.554-5.725q-.204-.101-.589-.066-.397.001-.962.173-.555.149-.712.467-.146.295-.008.929.116.623.423 1.086zm6.042-11.371l1.366.54.279-.707q.158-.401-.098-.992-.271-.625-.564-.986-.307-.394-2.052-1.356-1.768-.971-2.546-1.278l1.285-3.251q.919.363 2.772 1.395 1.853 1.032 2.217 1.421.638.661 1.389 2.619 2.098-1.105 3.283-1.208.588-.04 3.178.711 2.576.719 3.801 1.203l-1.285 3.251q-1.107-.438-3.556-1.133-2.463-.728-2.924-.665-1.608.209-1.999 1.198l-.354.895 7.539 2.98-1.285 3.251-10.319-4.078q-1.908-.754-2.75-.76-.856-.039-2.285.405l-.862-3.609q.793-.558 2.35-.57 1.534-.02 3.418.724zm11.313-16.194q.518-.133 1.826.267 1.284.393 2.017 1.2.554.699 1.332 2.659.754 1.953.524 2.704-.408 1.332-2.315 2.63-1.931 1.29-3.744 1.239l-1.018-3.252q1.257-.039 2.461-.598 1.204-.559 1.308-.898.111-.363.012-.818-.116-.486-.292-.778-.291-.434-1.115-.685-.824-.252-1.136.076-.56.359-1.668 1.556-1.101 1.173-2.239 2.123-1.163.942-2.017 1.052-.847.085-2.034-.278-1.211-.371-1.945-1.178-.554-.699-1.308-2.652-.778-1.96-.548-2.711.408-1.332 2.339-2.622 1.907-1.298 3.719-1.246l1.043 3.26q-1.257.039-2.461.598-1.228.551-1.34.915-.104.339-.012.818.092.479.35.849.241.339 1.04.583.775.237 1.19-.166.458-.284 1.607-1.442 3.02-2.944 4.424-3.203z" fill="#0d1f38"/>
    </g>
</svg>