<svg xmlns="http://www.w3.org/2000/svg" width="324.469" height="359.46" viewBox="0 0 85.849 95.107"
    xmlns:v="https://vecta.io/nano">
    <defs>
        <clipPath id="A">
            <path d="M0 500h750V0H0z" transform="translate(-655.274 -263.424)"/>
        </clipPath>
        <clipPath id="B">
            <path d="M0 500h750V0H0z" transform="translate(-643.624 -247.595)"/>
        </clipPath>
        <clipPath id="C">
            <path d="M0 500h750V0H0z" transform="translate(-646.551 -251.286)"/>
        </clipPath>
        <clipPath id="D">
            <path d="M0 500h750V0H0z" transform="translate(-625.476 -230.101)"/>
        </clipPath>
        <clipPath id="E">
            <path d="M0 500h750V0H0z" transform="translate(-601.642 -243.231)"/>
        </clipPath>
        <clipPath id="F">
            <path d="M0 500h750V0H0z" transform="translate(-597.743 -218.405)"/>
        </clipPath>
        <clipPath id="G">
            <path d="M0 500h750V0H0z" transform="translate(-547.624 -246.542)"/>
        </clipPath>
        <clipPath id="H">
            <path d="M0 500h750V0H0z" transform="translate(-604.621 -292.394)"/>
        </clipPath>
        <clipPath id="I">
            <path d="M0 500h750V0H0z" transform="translate(-646.547 -251.28)"/>
        </clipPath>
        <clipPath id="J">
            <path d="M0 500h750V0H0z" transform="translate(-526.572 -248.181)"/>
        </clipPath>
        <clipPath id="K">
            <path d="M0 500h750V0H0z" transform="translate(-547.618 -246.546)"/>
        </clipPath>
        <clipPath id="L">
            <path d="M0 500h750V0H0z" transform="translate(-516.496 -253.947)"/>
        </clipPath>
        <clipPath id="M">
            <path d="M0 500h750V0H0z" transform="translate(-621.282 -244.764)"/>
        </clipPath>
        <clipPath id="N">
            <path d="M0 500h750V0H0z" transform="translate(-604.621 -292.394)"/>
        </clipPath>
        <clipPath id="O">
            <path d="M0 500h750V0H0z" transform="translate(-535.989 -263.718)"/>
        </clipPath>
        <clipPath id="P">
            <path d="M0 500h750V0H0z" transform="translate(-553.522 -270.963)"/>
        </clipPath>
        <clipPath id="Q">
            <path d="M0 500h750V0H0z" transform="translate(-582.504 -258.091)"/>
        </clipPath>
        <clipPath id="R">
            <path d="M0 500h750V0H0z" transform="translate(-599.668 -250.784)"/>
        </clipPath>
        <clipPath id="S">
            <path d="M0 500h750V0H0z" transform="translate(-516.938 -207.212)"/>
        </clipPath>
        <clipPath id="T">
            <path d="M0 500h750V0H0z" transform="translate(-597.743 -218.405)"/>
        </clipPath>
        <clipPath id="U">
            <path d="M0 500h750V0H0z" transform="translate(-606.387 -234.576)"/>
        </clipPath>
        <clipPath id="V">
            <path d="M0 500h750V0H0z" transform="translate(-610.224 -227.588)"/>
        </clipPath>
    </defs>
    <g transform="translate(-155.514 -38.513)">
        <g transform="matrix(.264583 0 0 .264583 .000002 0)">
            <path d="M0 0c-2.167 5.584-6.689 10.84-13.659 15.836-12.658 32.025-43.925 54.74-80.397 54.74-31.548 0-59.198-17-74.282-42.316-3.373-1.615-6.337-3.35-8.804-5.196-6.351-4.752-9.425-10.151-9.138-16.048.284-5.769 2.673-10.33 6.274-13.94-.301-2.929-.456-5.899-.456-8.906 0-32.634 18.188-61.098 44.957-75.795-.701-1.24-.996-2.732-.739-4.297.501-3.057 3.298-5.363 6.506-5.363.225 0 .454.011.601.029 1.57.143 6.593.648 13.366 1.785a86.27 86.27 0 0 1 21.715-2.765c45.411 0 82.754 35.215 86.154 79.772 4.461 2.408 6.149 4.485 7.012 6.094C1.033-12.81 2.748-7.081 0 0" transform="matrix(1.333333 0 0 -1.333333 873.6992 315.43427)" clip-path="url(#A)" fill="#ffe9cc"/>
            <path d="M0 0c0-45.512-36.895-82.406-82.405-82.406S-164.812-45.512-164.812 0s36.895 82.405 82.407 82.405S0 45.511 0 0" transform="matrix(1.333333 0 0 -1.333333 858.16533 336.5404)" clip-path="url(#B)" fill="#c98c4b"/>
            <path d="M0 0c-1.214-2.256-10.728-6.105-22.437-9.121a18.57 18.57 0 0 1-2.832 2.599c-1.434 1.067-2.966 1.851-4.597 2.341-3.396 1.031-6.583.589-9.072-.208.368 2.182.54 4.426.417 6.461a132.83 132.83 0 0 0 7.38-5.186c.442-.343.956-.502 1.471-.502a2.44 2.44 0 0 1 1.962.968c.013.012.024.037.024.049.786 1.079.565 2.587-.503 3.384-30.649 23.208-60.257 25.464-79.702 23.269-19.407-2.194-32.549-8.986-34.953-10.323-.024 0-.036-.012-.061-.037-.171-.085-.282-.147-.319-.171a1.86 1.86 0 0 1-.392-.294c-.012-.013-.036-.025-.049-.037a2.45 2.45 0 0 1-.453-3.016c.674-1.177 2.181-1.57 3.346-.895.147.086 4.463 2.513 11.832 5.002-.614-3.028-1.239-7.27-1.117-11.622a41.28 41.28 0 0 1 .123-2.085c-12.751.699-38.043 4.953-38.729 19.016-.172 3.432 2.942 6.51 5.578 8.484 20.106 15.043 80.892 22.227 120.516 8.434.379-.135 3.555-1.311 3.739-1.275C-10.703 24.949-1.986 15.129.429 8.913 1.643 5.775 1.495 2.771 0 0" transform="matrix(1.333333 0 0 -1.333333 862.06773 331.61853)" clip-path="url(#C)" fill="#ff9400"/>
            <path d="M0 0c-2.501-1.875-8.275-5.872-15.129-7.993-2.439-.76-5.026-1.287-7.638-1.398-.11 2.073-.331 3.997-.626 5.775 3.519 3.494 12.825 5.48 13.401 5.591.013.011.024.011.024.011-3.334 1.974-6.472 2.563-9.121 2.49-2.476-.062-4.524-.7-5.922-1.288-.183.588-.367 1.103-.527 1.569 1.79.761 3.433 1.765 4.476 3.102.539.699 1.041 1.655 1.507 2.795a14.2 14.2 0 0 0 3.617 1.594c1.667.479 3.69.687 5.774.049C-6.069 11.047-2.648 6.915 0 0" transform="matrix(1.333333 0 0 -1.333333 833.96747 359.86587)" clip-path="url(#D)" fill="#ff491a"/>
            <path d="M0 0l-.036-.122c-.344-.92-.711-1.68-1.055-2.134-.846-1.079-3.126-1.962-5.541-2.562l-2.379-.503.172 4.12C-7.735-.956-6.068-.515-5.21 0c1.336.797 3.028 3.016 2.525 4.132S-4.94 6.277-4.94 6.277s1.336 1.986 2.525 2.452S.11 8.116.11 8.116s0 2.305-1.532 2.759c-1.141.343-5.247-2.575-7.258-4.083l.013 2.428c3.077 2.292 7.527 4.671 9.256 3.874.086-.05.417-.393.662-1.398C2.023 8.533 1.152 3.225 0 0" transform="matrix(1.333333 0 0 -1.333333 802.1888 342.35813)" clip-path="url(#E)" fill="#ffc594"/>
            <path d="M0 0a1.97 1.97 0 0 1 .049-.601c-.098-6.89-1.851-15.018-7.552-22.779-4.867-6.633-14.124-11.537-24.14-15.141h-.012c-13.388-4.793-28.149-7.221-35.701-8.239.282 1.263.392 2.808.209 4.696-.369 3.837-3.986 7.037-8.166 10.74-3.96 3.493-8.447 7.466-8.852 11.34-.356 3.421 1.398 6.498 3.359 8.791 1.128 1.324 2.329 2.39 3.237 3.126 4.511-3.777 10.654-6.609 18.427-7.026.527-.036 1.067-.049 1.643-.049 11.831 0 31.496 6.07 42.284 11.292-2.733-3.127-7.503-7.098-15.851-11.623-10.544-5.725-19.641-7.54-26.446-7.711-7.515-.209-12.248 1.57-13.081 2.206a2.45 2.45 0 1 1-3.2-3.726c.858-.735 2.905-1.68 5.934-2.366 2.452-.576 5.553-.981 9.171-.981 7.895 0 18.279 1.925 29.963 8.263C-7.037-8.006-6.424 1.435-6.743 4.046c.613 2.636 1.042 6.387 1.337 10.457.784.11 1.79.269 2.893.503C-1.594 12.419-.012 7.013.049.307.024.208 0 .11 0 0" transform="matrix(1.333333 0 0 -1.333333 796.99093 375.4596)" clip-path="url(#F)" fill="#ff491a"/>
            <path d="M0 0c-2.047 0-3.702 3.065-3.702 6.853 0 3.776 1.655 6.841 3.702 6.841 2.036 0 3.69-3.065 3.69-6.841C3.69 3.065 2.036 0 0 0m-21.05 1.643c-1.679 0-3.028 2.513-3.028 5.615s1.349 5.615 3.028 5.615c1.667 0 3.029-2.514 3.029-5.615s-1.362-5.615-3.029-5.615m50.413 13.069l-1.337 6.571-5.234 1.201c-1.116-2.17-1.508-5.088-1.508-8.079C21.284 7.858 23.135.98 23.135.98 16.208 4.413 11.721 10.997 8.987 16.563c-1.582 3.237-2.562 6.13-3.09 7.858-4.879.136-9.526-.085-13.841-.551-.135-2.17.441-4.561 1.067-6.449.625-1.9 1.312-3.286 1.385-3.445a20.97 20.97 0 0 0-6.143 3.2c-2.512 1.876-4.119 3.96-5.013 5.382-2.857-.552-5.518-1.189-7.957-1.864-.332-1.336-.834-3.555-1.202-6.178-.465-3.409-.699-7.479-.012-11.157.024-.074.037-.147.048-.233.295-1.459.737-2.856 1.374-4.107.442-.883.319-1.937-.319-2.685-1.434-1.704-4.34-5.823-5.946-10.127 1.949 1.582 3.679 2.832 4.966 3.703 1.042 4.45 5.933 7.393 8.41 8.863.258.16.477.283.662.406.343.907.649 3.628.686 6.031.012 1.349 1.104 2.428 2.453 2.428h.024a2.46 2.46 0 0 0 2.428-2.477c-.099-8.03-1.839-9.33-2.416-9.759-.27-.196-.736-.49-1.323-.834-1.828-1.09-6.106-3.653-6.229-6.24-.013-.221.393-.675 1.201-1.091 3.029-1.606 8.546-1.606 10.164-.392.539.417.809.894.859 1.556.073 1.128-.528 2.306-.847 2.71-.98.564-1.471 1.753-1.103 2.869.405 1.299 1.778 2.01 3.078 1.594 1.777-.576 3.126-3.053 3.579-5.235 11.917-5.174 19.077-21.627 19.077-21.627L-9.624-18.415c-1.274-.356-2.696-.515-4.168-.515-2.305 0-4.684.405-6.645 1.116l-10.151-6.413c1.484-3.468 4.364-7.073 8.447-9.783 1.458 1.3 2.403 3.654 2.881 5.187-2.771 1.299-4.389 2.819-4.511 2.954-.982.932-1.006 2.489-.062 3.47.932.968 2.477.993 3.457.061.221-.209 5.063-4.646 12.542-3.2a2.44 2.44 0 0 0 2.882-1.937c.257-1.324-.613-2.611-1.938-2.869a20.44 20.44 0 0 0-3.923-.38c-.233 0-.441.012-.662.025.994-2.98 3.298-5.885 4.954-7.662 7.662.146 17.837 2.782 26.567 5.786l-1.202 16.134 14.614 7.356 1.373 19.849.049.785z" transform="matrix(1.333333 0 0 -1.333333 730.16533 337.944)" clip-path="url(#G)" fill="#ffc594"/>
            <path d="M0 0c-23.061 7.785-52.093 9.048-77.029 5.909.845 2.685 2.378 6.461 5.099 10.103 4.231 5.688 11.341 11.009 23.086 11.193 27.353.38 44.271-8.827 46.723-12.75 1.006-1.606 1.606-5.039 1.913-9.012A88.15 88.15 0 0 0 0 0" transform="matrix(1.333333 0 0 -1.333333 806.16147 276.808)" clip-path="url(#H)" fill="#ff9400"/>
            <g fill="#0d1f38">
                <path d="M0 0c-1.206-2.248-10.729-6.097-22.433-9.117-2.194 2.452-4.671 4.11-7.422 4.94-3.404 1.03-6.586.592-9.083-.21.372 2.184.54 4.436.419 6.46a126.94 126.94 0 0 0 7.379-5.187c.444-.335.963-.496 1.478-.496.742 0 1.475.335 1.958.971.817 1.079.604 2.618-.476 3.435-30.647 23.208-60.258 25.463-79.702 23.259-21.09-2.387-34.767-10.194-35.338-10.526a2.45 2.45 0 1 1 2.456-4.243c.15.087 4.458 2.513 11.825 5.005-.712-3.512-1.435-8.644-.994-13.704-12.751.688-38.033 4.947-38.727 19.011-.167 3.433 2.942 6.507 5.58 8.481 1.476 1.104 3.049 2.078 4.666 2.962 1.844 1.007 3.749 1.898 5.685 2.709a87.93 87.93 0 0 0 6.586 2.432 116.98 116.98 0 0 0 7.369 2.131c2.66.679 5.34 1.277 8.034 1.806 2.846.56 5.708 1.043 8.58 1.459 2.994.433 5.998.794 9.009 1.087 3.101.301 6.209.531 9.32.691 3.169.164 6.341.254 9.514.273a202.99 202.99 0 0 0 9.588-.17 190.31 190.31 0 0 0 9.547-.636c3.138-.29 6.269-.662 9.386-1.126 3.051-.454 6.09-.996 9.108-1.64a124.79 124.79 0 0 0 8.71-2.177l3.058-.933c.593-.19 1.161-.376 1.756-.536 1.119-.302 4.119-1.507 4.607-1.653 1.231-.367 2.444-.947 3.642-1.413 1.785-.694 3.561-1.413 5.324-2.162 3.067-1.303 6.096-2.695 9.061-4.216 2.43-1.247 4.818-2.58 7.13-4.037 1.869-1.18 3.689-2.441 5.419-3.818 1.382-1.101 2.71-2.278 3.931-3.556.969-1.014 1.874-2.094 2.665-3.254.626-.918 1.181-1.887 1.62-2.909.067-.156.131-.312.193-.471C1.646 5.782 1.504 2.783 0 0m-43.844-30.574a50.12 50.12 0 0 1-.624 5.774c3.639 3.609 13.429 5.609 13.429 5.609-6.448 3.827-12.153 2.42-15.048 1.197-.184.586-.36 1.111-.525 1.573 1.791.755 3.435 1.76 4.483 3.107.534.687 1.043 1.654 1.505 2.788 1.365.848 5.272 2.906 9.392 1.642 4.095-1.254 7.508-5.386 10.156-12.29-3.389-2.555-12.814-8.987-22.768-9.4M-47.59-3.917c-.498 1.11-2.261 2.146-2.261 2.146S-48.51.221-47.321.68s2.528-.613 2.528-.613 0 2.299-1.532 2.759c-1.144.343-5.248-2.575-7.26-4.08l.016 2.425c3.067 2.296 7.519 4.668 9.248 3.87.094-.043.417-.389.661-1.388.773-3.163-.091-8.475-1.242-11.7-.016-.04-.033-.08-.045-.121-.34-.929-.701-1.684-1.054-2.137-1.117-1.436-4.776-2.523-7.91-3.06l.162 4.116c1.105.249 2.777.683 3.631 1.194 1.341.805 3.026 3.027 2.528 4.138m-1.171-29.56c-.088-6.889-1.842-15.014-7.548-22.779-11.382-15.49-46.647-21.602-59.854-23.385.285 1.265.396 2.813.212 4.701-.374 3.834-3.987 7.033-8.172 10.737-3.955 3.503-8.439 7.474-8.84 11.346-.558 5.388 4.117 9.915 6.593 11.91 4.505-3.777 10.65-6.607 18.421-7.026.528-.029 1.075-.042 1.64-.042 11.839 0 31.5 6.073 42.29 11.286-2.728-3.121-7.504-7.089-15.85-11.622-22.202-12.055-37.942-6.713-39.531-5.503-1.027.88-2.576.761-3.458-.266s-.763-2.576.265-3.457c1.56-1.335 7.02-3.349 15.101-3.348 7.889 0 18.278 1.919 29.962 8.265 21.686 11.776 22.301 21.216 21.98 23.832.619 2.63 1.048 6.391 1.343 10.453.787.107 1.791.271 2.891.511.92-2.589 2.502-8.002 2.557-14.699-.019-.102-.044-.203-.05-.309a2.53 2.53 0 0 1 .048-.605m-74.875 25.068c.634.753.757 1.812.312 2.69-.635 1.252-1.074 2.645-1.366 4.105a2.37 2.37 0 0 1-.049.24c-1.221 6.495.437 14.268 1.213 17.327a104.44 104.44 0 0 0 7.954 1.869c1.487-2.34 4.88-6.494 11.165-8.598 0 0-2.737 5.445-2.458 9.912a101.93 101.93 0 0 0 13.844.544c1.42-4.707 6.29-18.003 17.233-23.444 0 0-3.928 14.595-.338 21.513a101.02 101.02 0 0 0 5.229-1.203l1.341-6.568 5.517-3.167-1.43-20.638-14.61-7.357 1.202-16.134c-8.732-3-18.906-5.639-26.565-5.785-1.659 1.775-3.965 4.684-4.954 7.66.219-.008.432-.025.656-.025 1.237 0 2.548.116 3.924.385a2.45 2.45 0 0 1 1.938 2.874c-.259 1.328-1.539 2.202-2.875 1.938-7.486-1.452-12.321 2.982-12.55 3.199-.975.931-2.521.9-3.459-.071s-.912-2.527.063-3.467c.133-.128 1.743-1.651 4.519-2.957-.482-1.528-1.422-3.875-2.884-5.179-4.086 2.707-6.959 6.315-8.45 9.781l10.15 6.406c1.968-.71 4.344-1.114 6.652-1.114 1.463 0 2.891.167 4.17.514l24.632-12.864s-7.167 16.455-19.078 21.624c-.455 2.178-1.806 4.66-3.58 5.231-1.299.417-2.671-.296-3.085-1.584-.361-1.121.129-2.311 1.109-2.876.317-.397.916-1.578.841-2.711a1.98 1.98 0 0 0-.86-1.557c-1.61-1.209-7.135-1.21-10.16.39-.804.427-1.214.874-1.203 1.094.125 2.594 4.403 5.147 6.229 6.238.591.352 1.055.638 1.327.84.573.427 2.316 1.722 2.407 9.757a2.45 2.45 0 0 1-2.424 2.479h-.028a2.45 2.45 0 0 1-2.451-2.424c-.027-2.405-.342-5.135-.681-6.043-.178-.112-.405-.244-.664-.398-2.474-1.477-7.367-4.412-8.412-8.868a71.68 71.68 0 0 1-4.96-3.699c1.599 4.301 4.516 8.42 5.947 10.121m32.865 76.728c27.356.379 44.267-8.833 46.719-12.754 1.452-2.316 2.082-8.44 2.125-14.456-23.059 7.785-52.087 9.048-77.033 5.912 2.147 6.85 8.912 21.007 28.189 21.298m53.748-28.941c.065 5.252-.229 14.57-2.872 18.789-3.414 5.461-21.899 15.459-50.949 15.056-24.743-.374-31.771-20.374-33.413-26.94-17.844-2.756-33.096-7.794-41.761-14.278-5.222-3.907-7.758-8.162-7.54-12.648 1.009-20.445 35.787-23.314 44.494-23.712a20.38 20.38 0 0 1 .708-2.122c-2.2-2.91-7.301-10.45-7.225-17.546-3.942-4.082-7.813-9.206-10.089-15.142l12 7.575a26.93 26.93 0 0 1 3.802-5.876c-3.277-2.735-8.74-8.48-7.973-15.897.598-5.772 5.84-10.415 10.468-14.511 2.978-2.638 6.354-5.627 6.542-7.543.308-3.163-.556-4.619-1.107-4.997-1.208-.323-1.835-1.472-1.631-2.717.195-1.191 1.357-2.01 2.558-2.01.079 0 .159.003.239.012 2.16.197 53.073 5.091 68.415 25.969 5.937 8.08 8.104 16.409 8.499 23.678 14.149.504 26.728 11.139 27.288 11.62.764.654 1.05 1.711.722 2.662-1.029 2.977-2.2 5.584-3.507 7.816 8.954 2.402 21.194 6.437 23.673 11.059C5.841.494 7.194 5.04 4.999 10.697 1.014 20.963-13.128 30.602-37.023 39.378" transform="matrix(1.333333 0 0 -1.333333 862.06253 331.62627)" clip-path="url(#I)"/>
                <path d="M0 0c1.673 0 3.029 2.516 3.029 5.619S1.673 11.238 0 11.238-3.03 8.722-3.03 5.619-1.674 0 0 0" transform="matrix(1.333333 0 0 -1.333333 702.0964 335.75907)" clip-path="url(#J)"/>
                <path d="M0 0c2.039 0 3.691 3.064 3.691 6.845S2.039 13.69 0 13.69s-3.69-3.065-3.69-6.845S-2.038 0 0 0" transform="matrix(1.333333 0 0 -1.333333 730.1576 337.9388)" clip-path="url(#K)"/>
            </g>
            <g fill="#fc6400">
                <path d="M0 0c-8.68.797-17.188 4.205-17.69 5.909-.406 1.385 2.586 3.617 4.082 4.622-.822-.748-1.031-2.01-.454-3.016a2.45 2.45 0 0 1 3.347-.895c.147.086 4.463 2.514 11.831 5.003C.503 8.594-.122 4.352 0 0" transform="matrix(1.333333 0 0 -1.333333 688.66147 328.07093)" clip-path="url(#L)"/>
                <path d="M0 0c-1.435 1.067-2.967 1.852-4.598 2.342-3.395 1.03-6.583.589-9.072-.208.368 2.182.54 4.426.417 6.461l7.381-5.187c.441-.343.956-.502 1.471-.502a2.44 2.44 0 0 1 1.962.968c.012.013.024.037.024.05C-1.312 2.611-.429 1.263 0 0" transform="matrix(1.333333 0 0 -1.333333 828.37627 340.31507)" clip-path="url(#M)"/>
                <path d="M0 0c-23.061 7.785-52.093 9.048-77.029 5.909.845 2.685 2.378 6.461 5.099 10.103 14.492.674 39.687-.356 71.722-10.569A88.15 88.15 0 0 0 0 0" transform="matrix(1.333333 0 0 -1.333333 806.16147 276.808)" clip-path="url(#N)"/>
            </g>
            <g fill="#f28f69">
                <path d="M0 0c-6.596-.527-11.315-1.716-14.172-2.66a61.43 61.43 0 0 0 1.201 6.179c2.44.674 5.101 1.312 7.957 1.863C-4.119 3.96-2.513 1.876 0 0" transform="matrix(1.333333 0 0 -1.333333 714.6524 315.04293)" clip-path="url(#O)"/>
                <path d="M0 0c.527-1.729 1.508-4.622 3.09-7.858-6.008.76-11.292.981-15.864.858-.626 1.888-1.203 4.278-1.068 6.448C-9.526-.085-4.88.135 0 0" transform="matrix(1.333333 0 0 -1.333333 738.02867 305.38213)" clip-path="url(#P)"/>
                <path d="M0 0l-.049-.785C-4.843.723-9.354 1.925-13.596 2.856c0 2.992.392 5.91 1.508 8.08 1.729-.344 3.47-.748 5.234-1.202l1.337-6.571z" transform="matrix(1.333333 0 0 -1.333333 776.67187 322.5456)" clip-path="url(#Q)"/>
                <path d="M0 0c-.318-.834 1.263-3.212 1.042-4.953s.393-3.372-2.808-4.5c-1.753-.613-2.537-1.887-2.892-2.918l-2.379-.503.172 4.121c1.103.245 2.77.686 3.629 1.201C-1.9-6.755-.208-4.537-.711-3.42s-2.256 2.145-2.256 2.145S-1.631.711-.441 1.177 2.084.564 2.084.564.331.833 0 0" transform="matrix(1.333333 0 0 -1.333333 799.55733 332.2884)" clip-path="url(#R)"/>
            </g>
            <g fill="#d82912">
                <path d="M0 0c1.128 1.324 2.329 2.391 3.236 3.126C7.748-.65 13.891-3.482 21.664-3.899c.526-.037 1.066-.049 1.643-.049 11.831 0 31.496 6.069 42.284 11.292C62.857 4.217 58.088.245 49.739-4.279c-10.544-5.726-19.64-7.54-26.445-7.711 3.445 1.789 7.467 4.254 7.467 4.254C12.922-9.784 3.311-3.017 0 0" transform="matrix(1.333333 0 0 -1.333333 689.25 390.38413)" clip-path="url(#S)"/>
                <path d="M0 0a1.97 1.97 0 0 1 .049-.601c-.098-6.89-1.851-15.018-7.552-22.779-4.867-6.633-14.124-11.537-24.14-15.141 10.347 6.866 13.474 15.607 13.474 15.607s-10.495-7.136-29.118-8.741c-10.188-.883-16.734 1.887-20.572 4.585 2.452-.576 5.553-.981 9.171-.981 7.895 0 18.279 1.925 29.963 8.263C-7.037-8.006-6.424 1.435-6.743 4.046c.613 2.636 1.042 6.387 1.337 10.457.784.11 1.79.269 2.893.503C-1.594 12.419-.012 7.013.049.307.024.208 0 .11 0 0" transform="matrix(1.333333 0 0 -1.333333 796.99093 375.4596)" clip-path="url(#T)"/>
                <path d="M0 0c-2.477-.062-4.524-.699-5.922-1.287L-6.449.281c1.79.761 3.432 1.766 4.475 3.103.539.698 1.042 1.654 1.508 2.795.674.417 1.974 1.14 3.616 1.593-.306-2.157-.943-5.602-1.924-6.473C.858.956.417.502 0 0" transform="matrix(1.333333 0 0 -1.333333 808.5156 353.8984)" clip-path="url(#U)"/>
                <path d="M0 0c-.417-.87-.221-3.2.123-5.48-2.439-.76-5.026-1.288-7.638-1.398-.11 2.072-.331 3.997-.626 5.774C-4.622 2.391 4.684 4.377 5.26 4.487 4.929 4.291.883 1.839 0 0" transform="matrix(1.333333 0 0 -1.333333 813.63147 363.21613)" clip-path="url(#V)"/>
            </g>
        </g>
        <g fill="#ffe9cc">
            <path d="M157.145 99.391l.602-.185q.801-.246 1.065-.187.264.059.776.358.514.305.577.51.108.352-.162.933-.264.579-.713.85l-.712-.56q.314-.209.534-.522.226-.315.198-.404-.049-.16-.426-.269-.147-.046-.865.175l-.602.185q-.737.226-.814.341-.251.301-.202.462.028.09.346.237.325.146.664.154l-.281.865q-.479.014-.991-.327-.505-.343-.613-.695-.063-.205.192-.746.256-.535.441-.732.185-.197.986-.443z"/>
            <path d="M157.317 105.05q-.579-.284-.667-.509-.088-.225.142-.833.238-.604.453-.811.135-.132.791-.389l.737-.288q.655-.257.845-.251.297.006.877.29.588.288.676.513.088.225-.151.829-.23.608-.444.814-.135.132-.791.389l-.737.288q-.655.257-.845.251-.297-.006-.885-.294zm.267-1.12q-.076.174-.042.261.034.087.205.157.18.074.312.079.138.004.65-.197l.737-.288q.512-.2.605-.294.099-.096.175-.27.085-.17.05-.257-.034-.087-.214-.161-.171-.07-.309-.073-.132-.006-.644.194l-.737.288q-.512.2-.611.297-.093.094-.177.264z"/>
            <path d="M158.286 108.044l3.044-1.54q.102-.051.146-.127.054-.072.098-.207.044-.135.017-.189-.061-.12-.4-.196-.14.094-.308.178l-2.907 1.471-.418-.825 2.56-1.295q.508-.257.675-.432.17-.169.339-.532l.866.463q-.041.261-.19.442.547.264.638.444.091.179-.119.909.712.263.815.467.076.15-.06.669-.126.522-.213.678-.08.153-.29.259l-3.164 1.601-.418-.825 3.044-1.54q.114-.057.152-.13.045-.075.083-.222.041-.141.002-.219-.036-.072-.315-.133-.027.021-.099.057l-3.164 1.601zm4.518 2.251l.64 1.015-.686.432-.64-1.015-1.043.657.854 1.355-.686.432-1.347-2.138 3.493-2.201 1.037.44.797 1.265-.692.436-.665-1.055-.28-.117zm-.049 4.981l2.088-1.671q.644-.515.911-.557.267-.042.853.047.59.094.724.261.184.23.273.717.089.487-.007.838l-.868-.258q.058-.528-.084-.706-.054-.068-.215-.086-.155-.022-.305-.005-.14.018-.533.332l-.12.096.75.937-.633.507-.75-.937-1.507 1.206zm3.626 3.682q-.643-.052-.807-.229-.164-.177-.174-.827 0-.65.124-.92.077-.173.593-.652l.579-.538q.515-.479.693-.544.279-.104.922-.052.653.052.817.229.164.177.164.826.009.65-.114.921-.077.173-.593.652l-.579.538q-.515.479-.693.544-.279.104-.931.051zm-.162-1.139q-.007.189.057.258.064.069.249.071.194.002.319-.041.13-.047.532-.422l.579-.538q.403-.374.454-.496.057-.126.064-.315.016-.189-.047-.258-.064-.069-.258-.071-.185-.002-.315.045-.125.043-.527.417l-.579.538q-.403.374-.459.5-.052.121-.068.311z"/>
            <path d="M170.688 117.529q.644.092.787.223.143.132.199.665.065.533.039.71-.021.172-.18.344-.309.336-.422.35-.249.063-.661.075.038.563-.029.784-.056.14-.497.709-.436.564-.663.811l-.74-.681q.204-.222.6-.732.396-.51.437-.654.046-.14.05-.273l-.439-.404-1.325 1.441-.681-.626 1.987-2.161q.367-.4.449-.607.091-.208.117-.603l.973.13q.063.249-.003.498zm-.638.971l-.349.38.192.177q.069.064.277.055.208-.009.306-.056.107-.047.184-.131.077-.084.102-.18.034-.096.052-.235.018-.138-.022-.175-.133-.122-.394-.244-.162.206-.348.408zm5.907 2.917l-.473.65-.705-.513-2.287 3.144-.748-.544 2.287-3.144-.705-.513.473-.65z"/>
            <path d="M175.379 126.592l1.128-1.825-.787-.486-1.128 1.825-.787-.486 1.508-2.44q.3-.485.347-.715.057-.233.015-.637l.98-.056q.108.232.039.639-.066.4-.348.856l-.204.331.787.486.916-1.482.787.486-2.467 3.991zm3.669-1.216l1.067.549-.371.721-1.067-.549-.565 1.097 1.424.733-.371.721-2.247-1.157 1.89-3.671 1.117-.149 1.329.684-.374.727-1.108-.571-.3.041zm2.488 4.313l.947-2.501q.292-.771.5-.943.208-.172.758-.394.556-.22.757-.144.276.104.6.478.324.374.421.725l-.879.219q-.218-.484-.431-.565-.081-.031-.228.035-.145.06-.265.151-.112.087-.29.557l-.055.144 1.122.425-.287.759-1.122-.425-.683 1.805z"/>
            <path d="M186.537 131.012q-.58.283-.811.215-.231-.068-.571-.623-.331-.559-.363-.855-.021-.188.178-.863l.224-.759q.199-.675.319-.821.187-.231.767-.515.588-.288.819-.22.231.068.563.627.34.554.371.85.021.188-.178.863l-.224.759q-.199.675-.319.821-.187.231-.775.519zm-.721-.897q.091.167.181.193.09.027.25-.066.168-.097.254-.198.087-.107.243-.634l.224-.759q.155-.527.138-.658-.015-.137-.106-.304-.082-.171-.172-.198-.09-.027-.258.071-.16.093-.248.2-.086.101-.241.628l-.224.759q-.155.527-.14.664.017.131.1.302zm3.889 1.651q-.557.325-.793.274-.236-.051-.615-.579-.372-.533-.425-.826-.035-.186.114-.874l.167-.773q.149-.688.258-.843.169-.245.727-.57.565-.33.801-.279.236.051.607.584.38.528.433.821.035.186-.114.874l-.167.773q-.149.688-.258.843-.169.245-.735.575zm-.785-.842q.103.159.194.179.092.02.245-.084.161-.109.239-.216.079-.113.196-.65l.167-.773q.116-.537.089-.666-.025-.136-.128-.295-.095-.164-.186-.184-.092-.02-.252.089-.153.104-.232.217-.078.107-.194.644l-.167.773q-.116.537-.091.673.027.129.122.294z"/>
            <path d="M192.411 128.108q.485-.286.711-.256.226.03.638.532.42.496.496.784.05.183-.044.88l-.106.784q-.094.697-.19.86-.154.243-.667.586-.512.337-.778.301l-1.375-.185.383-2.843q.072-.538.022-.768-.044-.229-.249-.561l.959-.493q.125.125.199.379zm.57.692q-.193-.026-.495.062.001.142-.037.428l-.327 2.425.458.062q.093.013.237-.103.152-.122.221-.234.07-.119.144-.664l.115-.85q.073-.545.036-.671-.036-.133-.151-.284-.107-.157-.2-.169zm2.948 3.665q-.012.167-.576.659-.559.499-.612.495-.02-.001-.089-.073-.062-.072-.06-.105.007-.107.425-.696-.284-.268-.278-.355.006-.087.282-.29.283-.209.35-.204.074.005.319.251.245.239.24.319zm5.058-1.436q.077.119.087.48.01.355-.13.607-.129.198-.554.559-.426.354-.634.36-.369.01-.855-.358-.487-.375-.627-.834l.729-.53q.116.312.358.567.242.255.336.252.101-.003.206-.066.112-.07.17-.139.084-.11.078-.337-.006-.228-.115-.278-.137-.11-.531-.287-.387-.177-.722-.382-.335-.212-.434-.417-.093-.205-.102-.534-.009-.335.131-.587.129-.198.554-.552.426-.361.633-.367.369-.01.855.365.487.368.627.827l-.729.537q-.116-.312-.358-.567-.242-.261-.343-.259-.094.003-.206.066-.112.064-.183.159-.065.089-.058.31.006.214.142.284.11.091.497.281.993.508 1.177.838z"/>
            <path d="M203.724 127.959l.078.801-.867.085.379 3.869-.921.09-.379-3.869-.867.085-.078-.801z"/>
            <path d="M204.589 128.179q.396-.51.64-.551.244-.042.787.307.543.349.702.608.105.179.221.853l.462 2.702-.912.156-.169-.991-.912.156.169.991-.912.156-.462-2.702q-.115-.674-.075-.878.065-.297.461-.806zm.526 1.528l.157.918.912-.156-.157-.918q-.093-.542-.166-.652-.074-.116-.229-.226-.149-.117-.242-.101-.092.016-.201.177-.103.154-.134.288-.033.128.06.67zm3.929 2.005l-.462-1.819q-.306-.144-.619-.368-.308-.233-.434-.374-.127-.147-.258-.661l-.279-1.098.897-.228.279 1.098q.084.331.171.455.091.115.276.269.191.152.249.137.058-.015.154-.24.093-.231.114-.368.021-.137-.067-.481l-.279-1.098.897-.228.279 1.098q.132.52.089.704-.043.184-.209.537-.168.347-.362.617l.462 1.819zm4.32-1.272l-.955-2.498q-.294-.77-.253-1.037.041-.267.305-.798.27-.534.47-.61.275-.105.766-.042.491.064.796.263l-.511.748q-.485-.217-.697-.135-.081.031-.147.178-.068.141-.098.289-.026.139.154.609l.055.144 1.121-.428.29.758-1.121.428.689 1.803zm4.618-2.335q-.245.597-.463.7-.218.103-.841-.086-.619-.198-.839-.398-.141-.126-.441-.763l-.337-.716q-.3-.637-.307-.826-.014-.297.231-.894.248-.606.467-.709.218-.103.837.095.622.189.842.389.141.126.441.763l.337.716q.3.637.307.826.014.297-.234.903zm-1.135-.192q.178.064.263.024.085-.04.143-.215.061-.184.058-.316-.006-.138-.24-.635l-.337-.716q-.234-.497-.334-.584-.103-.092-.281-.157-.175-.073-.26-.033-.085.04-.146.224-.058.176-.052.314.003.132.237.629l.337.716q.234.497.337.59.1.086.275.159z"/>
            <path d="M217.928 123.568q.283-.586.452-.682.169-.096.694.013.528.1.688.178.157.072.273.276.226.396.205.508-.016.256-.129.653.548.135.738.265.116.096.524.688.405.587.571.878l-.873.499q-.15-.262-.515-.794-.366-.532-.49-.615-.119-.086-.244-.131l-.518.296.971 1.699-.803.459-1.456-2.549q-.269-.471-.442-.612-.17-.15-.539-.294l.419-.888q.256.016.474.154zm.731.902l.256.448.227-.13q.081-.047.136-.248.055-.201.04-.308-.012-.116-.069-.215-.057-.099-.14-.151-.081-.062-.208-.121-.126-.059-.173-.032-.157.09-.353.302.147.217.283.456zm4.571-4.743l.476.648-.702.516 2.303 3.132-.745.548-2.303-3.132-.702.516-.476-.648z"/>
            <path d="M227.986 121.846l-1.397-1.628-.702.602 1.397 1.628-.702.602-1.868-2.177q-.371-.432-.576-.548-.204-.125-.602-.208l.244-.951q.254-.033.62.157.361.184.711.591l.253.295.702-.602-1.135-1.323.702-.602 3.055 3.561zm-.045-3.866l.847-.849.574.573-.847.849.873.871 1.131-1.134.574.573-1.784 1.789-2.923-2.916.198-1.109 1.056-1.058.579.577-.88.883-.052.299zm1.852-4.372q0-.563.141-.742.141-.179.783-.279.641-.11.927-.029.183.05.735.485l.621.489q.553.435.644.601.131.257.166.873.03.612-.136.823l-.859 1.09-2.254-1.775q-.427-.336-.65-.41-.219-.079-.61-.071l.063-1.077q.171-.044.427.021zm.886-.139q-.12.153-.199.458.123.071.349.25l1.922 1.514.286-.363q.058-.074.032-.257-.028-.192-.089-.309-.067-.121-.499-.461l-.674-.531q-.432-.34-.56-.373-.133-.037-.321-.014-.189.013-.247.087zm1.168-2.588q-.013-.651.095-.813.107-.162.625-.302.516-.149.695-.152.173-.006.369.123.38.251.413.36.102.236.18.64.55-.127.778-.097.147.033.779.377.626.341.906.525l-.554.839q-.252-.166-.818-.476-.567-.31-.715-.327-.145-.023-.277-.006l-.328.498 1.634 1.078-.509.772-2.451-1.616q-.453-.299-.671-.346-.22-.057-.614-.019l-.027-.981q.236-.102.492-.077zm1.06.474l.431.284.144-.218q.052-.078.01-.283-.042-.204-.104-.293-.064-.098-.159-.161-.095-.063-.194-.072-.1-.018-.24-.014-.139.004-.169.049-.1.151-.178.428.229.127.459.278zm4.162-.498L233 108.521l.46-.802 4.069 2.336zm-1.82-4.061l.261.122 2.919 1.446-.411.829-2.571-1.274q-.504-.25-.744-.279-.237-.035-.635.044l-.147-.971q.2-.118.551-.131-.155-.668-.072-.836.083-.168.58-.371.494-.212.671-.236.171-.028.381.077l3.177 1.574-.414.835-3.057-1.515q-.054-.027-.156-.017-.105 0-.255.046-.147.039-.188.124-.039.078-.002.246.031.165.112.287z"/>
            <path d="M236.848 103.788l.362.143.074-.187q.042-.106-.026-.263-.072-.165-.149-.261-.081-.104-.543-.359-.468-.257-.674-.338l.34-.86q.243.096.733.369.49.273.587.376.169.175.368.693.555-.292.869-.32.156-.011.841.188.682.19 1.006.318l-.34.86q-.293-.116-.941-.3-.652-.193-.774-.176-.425.055-.529.317l-.094.237 1.995.788-.34.86-2.73-1.079q-.505-.2-.728-.201-.227-.01-.604.107l-.228-.955q.21-.148.622-.151.406-.005.904.192zm2.993-4.285q.137-.035.483.071.34.104.534.317.147.185.352.704.199.517.139.715-.108.353-.612.696-.511.341-.99.328l-.269-.86q.333-.01.651-.158.319-.148.346-.238.029-.096.003-.216-.031-.129-.077-.206-.077-.115-.295-.181-.218-.067-.301.02-.148.095-.441.412-.291.31-.592.562-.308.249-.534.278-.224.023-.538-.074-.32-.098-.514-.312-.147-.185-.346-.702-.206-.519-.145-.717.108-.353.619-.694.505-.343.984-.33l.276.862q-.333.01-.651.158-.325.146-.354.242-.027.09-.003.216.024.127.093.225.064.09.275.154.205.063.315-.044.121-.075.425-.382.799-.779 1.171-.848z"/>
        </g>
        <path d="M161.169 61.213l.724.526 8.045 6.132-1.741 2.284-7.085-5.4q-1.39-1.06-2.105-1.29-.702-.247-1.963-.24l.124-3.046q.68-.24 1.757-.074-.079-2.128.274-2.591.353-.463 1.988-.788 1.63-.354 2.184-.324.537.017 1.116.458l8.757 6.675-1.754 2.301-8.426-6.422q-.149-.114-.465-.145-.32-.061-.803-.01-.471.034-.647.266-.164.215-.152.748-.004.52.172.942zm5.551-9.713q.324-1.977.929-2.454.605-.476 2.603-.328 1.998.149 2.817.617.553.333 1.867 2.001l5.266 6.688-2.257 1.777-1.931-2.453-2.257 1.777 1.931 2.453-2.257 1.777-5.266-6.688q-1.313-1.668-1.507-2.284-.263-.906.061-2.883zm3.702 3.39l1.79 2.273 2.257-1.777-1.79-2.273q-1.056-1.341-1.418-1.532-.375-.208-.96-.277-.581-.099-.81.081-.229.18-.286.781-.053.572.061.985.101.397 1.157 1.738zm7.003-2.527l-.804-1.784q-1.069-2.372-.988-3.207.08-.835.801-2.53.74-1.703 1.347-1.976 1.044-.47 2.938.137 1.886.589 2.896 1.868l-1.448 2.41q-.765-.888-1.814-1.443-1.057-.574-1.323-.454-.474.214-.663 1.417-.084.472.873 2.597l.804 1.784q.983 2.182 1.367 2.375 1.026.656 1.501.443.266-.12.596-1.159.322-1.058.215-2.106l2.773.531q.229 1.472-.622 3.18-.86 1.689-1.904 2.159-.607.274-2.373-.301-1.746-.583-2.425-1.076-.679-.493-1.747-2.865zm16.566 1.088l-1.145-6.561-2.83.494 1.145 6.561-2.83.494-1.532-8.776q-.304-1.743-.668-2.376-.347-.658-1.278-1.509l2.16-2.152q.731.316 1.407 1.402.672 1.066.958 2.706l.208 1.189 2.83-.494-.931-5.331 2.83-.494 2.506 14.353zm9.236-1.097q-1.569 1.246-2.316 1.194-.747-.052-2.148-1.507-1.378-1.474-1.671-2.35-.191-.556-.038-2.736l.172-2.45q.153-2.18.419-2.704.413-.827 1.981-2.073 1.591-1.266 2.338-1.213.747.052 2.126 1.526 1.4 1.454 1.694 2.33.191.556.038 2.736l-.172 2.45q-.153 2.18-.419 2.704-.413.827-2.004 2.092zm-2.785-2.24q.386.444.677.465.291.02.714-.367.446-.407.638-.769.194-.383.313-2.085l.172-2.45q.119-1.703-.02-2.088-.138-.406-.525-.851-.364-.464-.655-.484-.291-.02-.737.387-.424.388-.617.77-.192.362-.312 2.065l-.172 2.45q-.119 1.703.019 2.109.14.385.504.849zm17.03-6.749q1.768-.434 2.276-.195.527.248 1.189 1.777.689 1.52.777 2.067.097.528-.337 1.451-.434.923-.938 1.261-.495.319-1.585.681.726 1.537.906 2.427.048.436-.395 1.378-.434.923-.774 1.108-.684.575-2.524 1.114-1.831.519-2.584.165l-3.899-1.832 3.789-8.062q.717-1.526.783-2.254.085-.719-.214-1.894l3.301-.565q.275.589.229 1.372zm-2.597 6.898l-1.62 3.447 1.3.611q.245.115.78-.093.544-.227.827-.439.311-.222.736-1.126.292-.622-.384-1.629zm1.611-3.428l-.629 1.337.961.451q.207.097.677-.119.497-.226.743-.456.246-.229.432-.625.186-.396.039-1.062-.138-.686-.458-.836-.32-.15-1.113-.224-.289.761-.652 1.534zm11.286 2.731q2.002-.09 2.592.404.591.494.857 2.48.266 1.986-.023 2.883-.211.61-1.573 2.239l-5.46 6.531-2.204-1.842 2.002-2.395-2.204-1.842-2.002 2.395-2.204-1.842 5.46-6.531q1.362-1.629 1.924-1.945.832-.444 2.834-.534zm-2.554 4.321l-1.856 2.22 2.204 1.842 1.856-2.22q1.095-1.309 1.207-1.704.126-.41.074-.997-.023-.589-.247-.776-.224-.187-.823-.119-.57.066-.952.262-.368.181-1.463 1.49zm11.837 4.646q1.898.693 2.248 1.185.35.492.175 2.149-.146 1.662-.338 2.182-.175.508-.769.93-1.153.821-1.506.791-.796.03-2.056-.197-.247 1.734-.592 2.363-.26.389-1.965 1.833-1.689 1.432-2.537 2.035l-1.81-2.544q.763-.543 2.294-1.837 1.531-1.294 1.75-1.705.231-.394.328-.795l-1.074-1.509-4.952 3.524-1.665-2.34 7.427-5.286q1.374-.978 1.754-1.555.41-.573.743-1.755l2.873 1.021q.03.796-.329 1.512zm-2.562 2.539l-1.306.929.471.661q.169.237.808.345.639.108.965.028.356-.074.644-.28.288-.205.424-.481.165-.271.308-.679.143-.409.047-.544-.326-.458-1.041-.996-.625.522-1.32 1.016z" fill="#ff491a"/>
    </g>
</svg>